<svg width="41" height="36" viewBox="0 0 41 36" fill="none" xmlns="http://www.w3.org/2000/svg">
<path d="M39.8722 10.8604C33.1227 2.35089 33.4118 2.5633 33.0496 2.53063L22.4849 1.13198C19.823 0.779057 18.0118 1.23656 17.088 1.31825C16.7789 1.36073 16.5596 1.6385 16.6028 1.94568C16.646 2.24959 16.9284 2.46527 17.2408 2.42279C18.178 2.33782 19.8562 1.90647 22.3354 2.23652L29.5901 3.19727C29.0484 3.30511 21.0426 4.90962 20.4976 5.02073L11.4052 3.19727L14.549 2.78225C14.8581 2.73977 15.0774 2.462 15.0342 2.15482C14.991 1.85091 14.7052 1.63523 14.3961 1.67772L7.94236 2.53063H7.93239C7.93239 2.53063 7.91577 2.53389 7.9058 2.53716C7.89916 2.53716 7.89583 2.53716 7.88919 2.53716C7.88586 2.53716 7.87922 2.53716 7.87589 2.53716C7.86925 2.53716 7.8626 2.54043 7.85595 2.5437C7.84598 2.5437 7.83601 2.55023 7.82604 2.5535C7.82272 2.5535 7.8194 2.5535 7.81275 2.55677C7.81275 2.55677 7.80943 2.55677 7.8061 2.55677C7.79946 2.55677 7.79613 2.56004 7.78949 2.5633C7.77952 2.56657 7.76955 2.57311 7.75958 2.57638C7.75626 2.57638 7.74961 2.57964 7.74629 2.58291C7.74296 2.58291 7.73632 2.58618 7.73299 2.58945C7.72967 2.58945 7.72302 2.59598 7.7197 2.59598C7.47378 2.7365 7.59342 2.7463 1.11971 10.8538C0.983455 11.0238 0.963515 11.2558 1.05989 11.4453C1.28919 11.8898 0.681039 11.0107 13.1798 27.3271C13.3692 27.5722 13.7248 27.6212 13.9741 27.4349C14.2233 27.2487 14.2732 26.899 14.0837 26.6539L3.11034 12.3538L11.9834 15.102C12.1961 15.6543 18.6931 32.5066 18.8161 32.8203L15.6889 28.7453C15.4994 28.5002 15.1439 28.4512 14.8946 28.6375C14.6454 28.8238 14.5955 29.1734 14.7849 29.4185C18.0584 33.6831 18.394 34.1275 18.4206 34.1504C18.8327 34.6079 19.4076 34.8987 19.9526 34.9902C20.0324 35.0033 20.9828 35.0033 21.0626 34.9902C21.7538 34.8595 22.3354 34.4739 22.6112 34.1177L33.6677 19.7065C33.8571 19.4614 33.8073 19.1117 33.558 18.9254C33.3088 18.7392 32.9532 18.7882 32.7638 19.0333L22.1858 32.8203C22.5248 31.9446 28.7692 15.7458 29.0185 15.102L37.8916 12.3538L34.3589 16.9582C34.1695 17.2033 34.2194 17.5529 34.4686 17.7392C34.7179 17.9255 35.0734 17.8765 35.2629 17.6314C40.0085 11.4421 39.7526 11.8179 39.9387 11.4551C40.0384 11.2623 40.0151 11.0303 39.8789 10.8604H39.8722ZM20.4976 6.42917L27.3302 14.0956H13.665L20.4976 6.42917ZM2.45898 10.9846L7.83269 4.20703L11.475 13.7753L2.45898 10.9813V10.9846ZM8.89613 3.82796C10.0161 4.05344 18.0584 5.66449 19.4275 5.93899L12.6115 13.5858L8.89613 3.82796ZM20.5574 33.8824H20.4312L13.2297 15.2066H27.7556L20.5541 33.8824H20.5574ZM28.3804 13.5825L21.5644 5.93573C22.4716 5.75273 30.7 4.10573 32.0958 3.82469L28.3804 13.5825ZM29.517 13.7753L33.1592 4.20703L38.533 10.9846L29.517 13.7786V13.7753Z" fill="#1E1670" stroke="#1E1670" stroke-width="0.5"/>
</svg>
