<?xml version="1.0" encoding="UTF-8"?>
<svg id="Layer_1" data-name="Layer 1" xmlns="http://www.w3.org/2000/svg" viewBox="0 0 130 52.09">
  <defs>
    <style>
      .cls-1 {
        fill: #020202;
      }

      .cls-2 {
        fill: #0093d0;
      }
    </style>
  </defs>
  <g>
    <path class="cls-1" d="M3.85,46.56H1.82v-1.04h5.18v1.04h-2.02v5.34h-1.13v-5.34Z"/>
    <path class="cls-1" d="M7.56,48.73v-.02c0-1.8,1.39-3.3,3.35-3.3s3.33,1.49,3.33,3.28v.02c0,1.8-1.39,3.3-3.34,3.3s-3.33-1.49-3.33-3.28ZM13.05,48.73v-.02c0-1.24-.9-2.27-2.17-2.27s-2.15,1.01-2.15,2.25v.02c0,1.24.9,2.26,2.17,2.26s2.15-1,2.15-2.24Z"/>
    <path class="cls-1" d="M16.81,46.56h-2.02v-1.04h5.18v1.04h-2.02v5.34h-1.13v-5.34Z"/>
    <path class="cls-1" d="M22.59,45.47h1.04l2.81,6.43h-1.18l-.65-1.54h-3.02l-.66,1.54h-1.15l2.81-6.43ZM24.19,49.37l-1.1-2.55-1.09,2.55h2.2Z"/>
    <path class="cls-1" d="M27.53,45.52h1.12v5.36h3.35v1.02h-4.47v-6.38Z"/>
    <path class="cls-1" d="M41.65,52.09l-.77-.68c-.54.37-1.19.6-1.94.6-1.96,0-3.33-1.49-3.33-3.28v-.02c0-1.8,1.39-3.3,3.34-3.3s3.33,1.49,3.33,3.28v.02c0,.72-.24,1.4-.65,1.96l.73.62-.72.8ZM40.07,50.68l-1.1-.94.72-.82,1.12,1.02c.2-.35.31-.76.31-1.21v-.02c0-1.24-.9-2.27-2.17-2.27s-2.15,1.01-2.15,2.25v.02c0,1.24.9,2.26,2.17,2.26.42,0,.79-.11,1.1-.29Z"/>
    <path class="cls-1" d="M43.55,49.19v-3.67h1.12v3.63c0,1.18.61,1.81,1.61,1.81s1.6-.59,1.6-1.77v-3.67h1.12v3.62c0,1.9-1.08,2.86-2.74,2.86s-2.72-.96-2.72-2.81Z"/>
    <path class="cls-1" d="M52.58,45.47h1.04l2.81,6.43h-1.19l-.65-1.54h-3.02l-.66,1.54h-1.15l2.81-6.43ZM54.18,49.37l-1.1-2.55-1.09,2.55h2.2Z"/>
    <path class="cls-1" d="M57.52,45.52h1.12v5.36h3.35v1.02h-4.47v-6.38Z"/>
    <path class="cls-1" d="M63.22,45.52h1.12v6.38h-1.12v-6.38Z"/>
    <path class="cls-1" d="M67.62,46.56h-2.02v-1.04h5.18v1.04h-2.02v5.34h-1.13v-5.34Z"/>
    <path class="cls-1" d="M73.83,49.38l-2.53-3.86h1.33l1.78,2.82,1.8-2.82h1.28l-2.53,3.84v2.54h-1.13v-2.52Z"/>
    <path class="cls-1" d="M81.21,45.52h1.12v5.36h3.35v1.02h-4.47v-6.38Z"/>
    <path class="cls-1" d="M86.21,48.73v-.02c0-1.8,1.39-3.3,3.34-3.3s3.33,1.49,3.33,3.28v.02c0,1.8-1.39,3.3-3.35,3.3s-3.33-1.49-3.33-3.28ZM91.7,48.73v-.02c0-1.24-.9-2.27-2.17-2.27s-2.15,1.01-2.15,2.25v.02c0,1.24.9,2.26,2.17,2.26s2.15-1,2.15-2.24Z"/>
    <path class="cls-1" d="M93.95,48.73v-.02c0-1.79,1.37-3.3,3.29-3.3,1.11,0,1.8.31,2.45.87l-.71.85c-.49-.42-.97-.68-1.79-.68-1.18,0-2.07,1.03-2.07,2.25v.02c0,1.31.87,2.28,2.17,2.28.6,0,1.15-.19,1.54-.48v-1.19h-1.63v-.98h2.72v2.68c-.63.54-1.53.99-2.66.99-2,0-3.31-1.42-3.31-3.28Z"/>
    <path class="cls-1" d="M101.45,45.52h1.12v6.38h-1.12v-6.38Z"/>
    <path class="cls-1" d="M103.84,50.97l.67-.8c.61.53,1.23.83,2.01.83.69,0,1.13-.33,1.13-.8v-.02c0-.46-.26-.7-1.44-.98-1.36-.33-2.12-.73-2.12-1.9v-.02c0-1.09.91-1.85,2.18-1.85.93,0,1.67.28,2.31.8l-.6.85c-.57-.43-1.15-.66-1.73-.66-.66,0-1.04.34-1.04.76v.02c0,.49.29.71,1.52,1,1.35.33,2.04.81,2.04,1.87v.02c0,1.19-.94,1.9-2.28,1.9-.98,0-1.9-.34-2.66-1.02Z"/>
    <path class="cls-1" d="M111.54,46.56h-2.02v-1.04h5.18v1.04h-2.02v5.34h-1.13v-5.34Z"/>
    <path class="cls-1" d="M115.94,45.52h1.12v6.38h-1.12v-6.38Z"/>
    <path class="cls-1" d="M118.48,48.73v-.02c0-1.81,1.36-3.3,3.29-3.3,1.18,0,1.89.41,2.5.99l-.72.83c-.51-.47-1.06-.79-1.79-.79-1.21,0-2.11,1-2.11,2.25v.02c0,1.25.89,2.26,2.11,2.26.78,0,1.29-.31,1.83-.82l.72.73c-.67.69-1.39,1.13-2.59,1.13-1.86,0-3.24-1.45-3.24-3.28Z"/>
    <path class="cls-1" d="M125.06,50.97l.67-.8c.61.53,1.23.83,2.01.83.69,0,1.13-.33,1.13-.8v-.02c0-.46-.26-.7-1.44-.98-1.36-.33-2.12-.73-2.12-1.9v-.02c0-1.09.91-1.85,2.18-1.85.93,0,1.67.28,2.31.8l-.6.85c-.57-.43-1.15-.66-1.73-.66-.66,0-1.04.34-1.04.76v.02c0,.49.29.71,1.52,1,1.35.33,2.04.81,2.04,1.87v.02c0,1.19-.94,1.9-2.28,1.9-.97,0-1.9-.34-2.66-1.02Z"/>
  </g>
  <g>
    <g>
      <path class="cls-1" d="M9.92,9.95H0v-5.1h25.39v5.1h-9.92v26.2h-5.54V9.95Z"/>
      <path class="cls-1" d="M54.14,37.08l-3.76-3.35c-2.64,1.83-5.86,2.95-9.52,2.95-9.61,0-16.32-7.29-16.32-16.09v-.09c0-8.81,6.79-16.18,16.41-16.18s16.32,7.29,16.32,16.09v.09c0,3.53-1.16,6.88-3.17,9.61l3.58,3.04-3.53,3.93ZM46.36,30.15l-5.41-4.6,3.53-4.02,5.5,5.01c.98-1.7,1.52-3.71,1.52-5.95v-.09c0-6.08-4.43-11.13-10.64-11.13s-10.55,4.96-10.55,11.04v.09c0,6.08,4.43,11.09,10.64,11.09,2.06,0,3.89-.54,5.41-1.43Z"/>
      <path class="cls-1" d="M62.14,4.85h5.5v26.29h16.45v5.01h-21.95V4.85Z"/>
    </g>
    <g>
      <path class="cls-2" d="M112.05,19.69c5.72-2.62,10.28-7.16,12.91-12.78-4.4-5.39-11.64-8.11-18.87-6.4-9.42,2.23-15.48,11.19-14.3,20.58,7.1,2.03,14.31,1.37,20.26-1.39Z"/>
      <path class="cls-2" d="M128.67,14.45c-.41-1.72-1.04-3.33-1.86-4.8-1.1,5.99-3.85,11.34-7.83,15.45-5.02,5.23-12.02,8.44-19.66,8.81,4.28,3.13,9.85,4.44,15.41,3.12,10.08-2.38,16.33-12.49,13.94-22.58Z"/>
      <path class="cls-2" d="M89.14,25.06c-.06-.11-.13-.21-.19-.31.06.1.13.21.19.31Z"/>
      <path class="cls-2" d="M89.7,25.94c-.06-.08-.11-.17-.16-.26.05.09.11.17.16.26Z"/>
      <path class="cls-2" d="M115.45,22.5c6.96-4.86,11.42-12.95,11.64-22.1h0s0,0,0,0h0c-.48,9.03-5.2,16.94-12.34,21.54-7.11,4.63-16.66,5.96-25.9,2.63h0c.04.06.07.11.11.17.06.1.13.21.19.31.13.21.26.42.39.63.05.09.11.17.16.26.05.07.09.15.14.22h0c9.28,2.9,18.7,1.23,25.62-3.67Z"/>
    </g>
  </g>
</svg>